<svg id="slogan" xmlns="http://www.w3.org/2000/svg" width="141.72" height="141.42" viewBox="0 0 141.72 141.42">
  <path id="Path_1" data-name="Path 1" d="M67.84,16.98l-4.08.4L62.08.4,66.16,0Z" fill="#f53e26"/>
  <path id="Path_2" data-name="Path 2" d="M91.8,2.8l-.48,12.46L98.94,5.4l5.09,1.85L98.2,23.29l-3.88-1.41,1.36-3.74,3.16-7.53-8.03,10-2.55-.93.26-12.83L86.1,14.66,84.74,18.4l-3.87-1.41L86.7.95Z" fill="#f53e26"/>
  <path id="Path_3" data-name="Path 3" d="M111.09,29.93l-4.22-3.74-2.85,1.73L100.73,25l16-8.62,2.89,2.57-6.6,16.95-3.31-2.93Zm-1.37-5.46,2.75,2.43,2.55-5.65Z" fill="#f53e26"/>
  <path id="Path_4" data-name="Path 4" d="M123.07,40.24l-2.45-.54-3.9,2.25-2.05-3.56,14.79-8.52,2.05,3.56-6.52,3.76,2.59.16,6.48.52,2.54,4.41-9.42-1.23-5.37,9.75-2.43-4.22Z" fill="#f53e26"/>
  <path id="Path_5" data-name="Path 5" d="M131.89,62.27l-1.43-6.31-3.98.9,1.68,7.45-3.09.7-2.59-11.46,16.64-3.76,2.6,11.49-3.1.7-1.69-7.48-3.51.79,1.43,6.31Z" fill="#f53e26"/>
  <path id="Path_6" data-name="Path 6" d="M125.06,76.78l16.61,3.89-1.4,5.97a8.615,8.615,0,0,1-2.32,4.6,4.451,4.451,0,0,1-5.86-.24,3.525,3.525,0,0,1-.94-2.06,3.6,3.6,0,0,1-1.75,1.7,3.817,3.817,0,0,1-2.45.16,4.511,4.511,0,0,1-3.31-2.41,7.578,7.578,0,0,1-.18-4.87Zm6.13,5.66-3.98-.93-.62,2.62a2.55,2.55,0,0,0,.11,1.78,1.77,1.77,0,0,0,1.26.91,1.893,1.893,0,0,0,2.57-1.58Zm2.62.62-.49,2.09a3.052,3.052,0,0,0,.04,1.98,1.712,1.712,0,0,0,1.25.88,1.864,1.864,0,0,0,1.66-.25,3.3,3.3,0,0,0,.92-1.84l.46-1.96Z" fill="#f53e26"/>
  <path id="Path_7" data-name="Path 7" d="M121.24,106.11l3.28-5.58L121,98.47l-3.87,6.59-2.73-1.6,5.96-10.13,14.71,8.65-5.97,10.15-2.74-1.61,3.89-6.61-3.1-1.82-3.28,5.58Z" fill="#f53e26"/>
  <path id="Path_8" data-name="Path 8" d="M107.22,115.01l4.19-3.77-1.4-3.03,3.27-2.94,6.76,16.87-2.87,2.59-16.1-8.46,3.28-2.96Zm5.58-.75-2.73,2.45,5.33,3.17Z" fill="#f53e26"/>
  <path id="Path_9" data-name="Path 9" d="M93.25,135.17l4.64-2.16-5.86-12.59,3.73-1.73,5.86,12.59,4.56-2.12,1.34,2.88-12.93,6.01Z" fill="#f53e26"/>
  <path id="Path_10" data-name="Path 10" d="M76.05,128.97a1.7,1.7,0,0,0,.81,1.31,7.83,7.83,0,0,0,2.36.75,22.8,22.8,0,0,1,2.74.7c2.33.8,3.62,2.14,3.85,4.02a4.054,4.054,0,0,1-.5,2.59,5.384,5.384,0,0,1-2.11,1.97,9.08,9.08,0,0,1-3.29,1.03,7.927,7.927,0,0,1-3.36-.23,5.125,5.125,0,0,1-2.48-1.57,4.845,4.845,0,0,1-1.15-2.65l4.07-.52a2.055,2.055,0,0,0,.84,1.52,2.486,2.486,0,0,0,1.79.35,2.859,2.859,0,0,0,1.67-.7,1.431,1.431,0,0,0-.37-2.4,9.041,9.041,0,0,0-2.59-.78,15.277,15.277,0,0,1-3.04-.85,4.9,4.9,0,0,1-3.3-4.01,4.16,4.16,0,0,1,1.23-3.7,7.517,7.517,0,0,1,4.43-1.85,9.269,9.269,0,0,1,3.82.26,5.713,5.713,0,0,1,2.77,1.7,5.3,5.3,0,0,1,1.22,2.85l-4.09.52a2.633,2.633,0,0,0-.96-1.92,3.325,3.325,0,0,0-2.37-.35,2.668,2.668,0,0,0-1.54.64A1.438,1.438,0,0,0,76.05,128.97Z" fill="#f53e26"/>
  <path id="Path_11" data-name="Path 11" d="M54.03,131.35a10.667,10.667,0,0,1,.38,2.13,4.473,4.473,0,0,1-.26,1.86,4.381,4.381,0,0,1-2.39,2.68,4.833,4.833,0,0,1-3.72.01,4.551,4.551,0,0,1-2.61-2.19,3.839,3.839,0,0,1-.2-3.18,4.727,4.727,0,0,1,3.57-2.82l1.05-.28-1.45-3.72a6.158,6.158,0,0,0-1.57,2.44l-3.12-1.13a8.845,8.845,0,0,1,3.38-4.67l-1.43-3.69,4.14,1.5.44,1.12a8.117,8.117,0,0,1,2.18-.13,8.973,8.973,0,0,1,2.27.52,5.9,5.9,0,0,1,3.36,2.63,4.442,4.442,0,0,1,.25,3.81,3.918,3.918,0,0,1-1.3,1.81,9.333,9.333,0,0,1-2.97,1.31Zm-3.1,2.89a3.559,3.559,0,0,0-.16-2.18l-.91.2a2.557,2.557,0,0,0-.98.42,1.692,1.692,0,0,0-.55.81,1.358,1.358,0,0,0,.03,1.01,1.205,1.205,0,0,0,.74.69,1.333,1.333,0,0,0,1.11-.04A1.631,1.631,0,0,0,50.93,134.24Zm2.52-9.67a4.287,4.287,0,0,0-2.01-.22l1.7,4.33.12-.03a2.914,2.914,0,0,0,1.26-1.51,2.125,2.125,0,0,0-.01-1.55A1.752,1.752,0,0,0,53.45,124.57Z" fill="#f53e26"/>
  <path id="Path_12" data-name="Path 12" d="M32.89,108.64l2.99,2.8L24.23,123.9l-2.99-2.8Z" fill="#f53e26"/>
  <path id="Path_13" data-name="Path 13" d="M20.05,95.98,17,89.5l2.86-1.35,4.8,10.2L9.22,105.62,7.47,101.9Z" fill="#f53e26"/>
  <path id="Path_14" data-name="Path 14" d="M8.75,72.42a10.024,10.024,0,0,1,4.51.28,6.827,6.827,0,0,1,3.31,2.17,7.275,7.275,0,0,1,1.59,3.69,7.406,7.406,0,0,1-.43,3.97,6.882,6.882,0,0,1-2.45,3.02,9.753,9.753,0,0,1-4.09,1.6l-.95.14a10.163,10.163,0,0,1-4.51-.27,6.82,6.82,0,0,1-3.31-2.18,7.388,7.388,0,0,1-1.6-3.72,7.289,7.289,0,0,1,.46-3.98A6.973,6.973,0,0,1,3.8,74.1a9.861,9.861,0,0,1,4.18-1.58Zm-.11,4.24a7.2,7.2,0,0,0-3.7,1.4,2.726,2.726,0,0,0-.95,2.6c.3,2.04,1.99,2.9,5.07,2.56l1.24-.17a7.316,7.316,0,0,0,3.69-1.38,2.76,2.76,0,0,0,.98-2.64,2.686,2.686,0,0,0-1.66-2.19,7.093,7.093,0,0,0-3.89-.29Z" fill="#f53e26"/>
  <path id="Path_15" data-name="Path 15" d="M13.63,60.33,2.01,54.78l.81-4.52,15.77,8.68-.8,4.43L0,65.94l.81-4.49Z" fill="#f53e26"/>
  <path id="Path_16" data-name="Path 16" d="M19.46,37.84l-3.01,5.73,3.61,1.9,3.55-6.77,2.8,1.47L20.95,50.58,5.85,42.65l5.47-10.43,2.81,1.48-3.56,6.79,3.19,1.67,3.01-5.73Z" fill="#f53e26"/>
  <path id="Path_17" data-name="Path 17" d="M37.85,28.42l-3.12,2.66L23.66,18.1l3.12-2.66Z" fill="#f53e26"/>
  <path id="Path_18" data-name="Path 18" d="M46.99,7.08,42.42,9.39l6.27,12.39-3.67,1.86L38.75,11.25l-4.49,2.27-1.43-2.83L45.56,4.25Z" fill="#f53e26"/>
</svg>
